#N canvas 238 12 727 623 10;
#X obj 93 330 dac~;
#X obj 93 301 *~ 0;
#X obj 146 301 *~ 0;
#X obj 209 248 vsl 15 50 0.01 1.3 1 0 empty empty empty 0 -8 0 8 -241291
-1 -1 4300 0;
#X msg 112 104 play;
#X msg 193 103 pause;
#X msg 251 117 speed \$1;
#X floatatom 251 94 5 0 0 0 - - -;
#X obj 410 54 loadbang;
#X msg 293 58 1;
#X msg 345 117 loop \$1;
#X obj 347 98 tgl 15 0 empty empty empty 0 -6 0 8 -262144 -1 -1 0 1
;
#X msg 423 85 \; pd dsp 1 \;;
#X floatatom 220 302 5 0 0 0 - - -;
#X msg 12 115 open \$1;
#X obj 12 87 openpanel;
#X obj 12 63 bng 15 250 50 0 empty empty empty 17 7 0 10 -262144 -1
-1;
#X msg 152 103 stop;
#X floatatom 252 169 16 0 0 0 - - -;
#X msg 252 189 pcm_seek \$1;
#X obj 256 146 hsl 128 15 0 7.368e+06 0 0 empty empty empty -2 -8 0
10 -260818 -1 -1 0 1;
#X msg 251 60 0.21;
#X msg 94 14 open http://www.fro.at:8008/fro-64.ogg.m3u;
#X floatatom 225 503 5 0 0 0 - - -;
#X floatatom 278 463 5 0 0 0 - - -;
#X floatatom 173 556 5 0 0 0 - - -;
#X obj 94 242 readanysf~ 4;
#X msg 398 225 loop \$1;
#X obj 398 198 tgl 15 0 empty empty empty 17 7 0 10 -262144 -1 -1 0
1;
#X floatatom 331 435 5 0 0 0 - - -;
#X obj 437 367 bng 15 250 50 0 empty empty empty 17 7 0 10 -262144
-1 -1;
#X obj 173 336 route ready samplerate length cache float bang;
#X floatatom 385 390 5 0 0 0 - - -;
#X text 218 555 ready: status for when a file is loaded and ready;
#X text 275 568 to play. If you load a file from disk or;
#X text 275 582 from the net \, it may take a while to load;
#X text 274 595 depending on disk activity and net bandwidth.;
#X text 278 503 samplerate of the file being played. The;
#X text 279 515 speed is set automatically to be:;
#X text 315 528 infile.samplerate / pd.samplerate;
#X text 326 465 length: length of file in seconds;
#X text 327 478 (will be empty for network streams);
#X text 381 434 cache: percentage (0.0->1.0) of;
#X text 430 456 comment;
#X text 431 447 cache being used.;
#X text 431 391 float: length in seconds;
#X text 481 405 that have been;
#X text 485 416 played so far.;
#X text 464 367 bang: end of file.;
#X msg 410 157 0.8;
#X connect 1 0 0 0;
#X connect 2 0 0 1;
#X connect 3 0 1 1;
#X connect 3 0 2 1;
#X connect 3 0 13 0;
#X connect 4 0 26 0;
#X connect 5 0 26 0;
#X connect 6 0 26 0;
#X connect 7 0 6 0;
#X connect 8 0 12 0;
#X connect 8 0 49 0;
#X connect 9 0 7 0;
#X connect 10 0 26 0;
#X connect 11 0 10 0;
#X connect 14 0 26 0;
#X connect 15 0 14 0;
#X connect 16 0 15 0;
#X connect 17 0 26 0;
#X connect 18 0 19 0;
#X connect 19 0 26 0;
#X connect 20 0 18 0;
#X connect 21 0 7 0;
#X connect 22 0 26 0;
#X connect 26 0 1 0;
#X connect 26 1 2 0;
#X connect 26 4 31 0;
#X connect 27 0 26 0;
#X connect 28 0 27 0;
#X connect 31 0 25 0;
#X connect 31 1 23 0;
#X connect 31 2 24 0;
#X connect 31 3 29 0;
#X connect 31 4 32 0;
#X connect 31 5 30 0;
#X connect 49 0 3 0;
