#N canvas 56 157 727 623 10;
#X obj 28 356 dac~;
#X obj 28 321 *~ 0;
#X obj 69 321 *~ 0;
#X obj 579 130 vsl 15 50 0.01 1.3 1 0 empty empty empty 0 -8 0 8 -241291
-1 -1 4411 0;
#X msg 112 104 play;
#X msg 193 103 pause;
#X msg 276 109 speed \$1;
#X floatatom 276 86 5 0 0 0 - - -;
#X obj 516 8 loadbang;
#X msg 318 63 1;
#X msg 529 39 \; pd dsp 1 \;;
#X floatatom 590 184 5 0 0 0 - - -;
#X msg 12 115 open \$1;
#X obj 12 87 openpanel;
#X obj 12 63 bng 15 250 50 0 empty empty empty 17 7 0 10 -262144 -1
-1;
#X msg 152 103 stop;
#X floatatom 273 161 16 0 0 0 - - -;
#X msg 273 181 pcm_seek \$1;
#X obj 276 138 hsl 128 15 0 7.368e+06 0 0 empty empty empty -2 -8 0
10 -260818 -1 -1 0 1;
#X msg 276 62 0.21;
#X msg 105 8 open http://www.fro.at:8008/fro-64.ogg.m3u;
#X floatatom 270 503 5 0 0 0 - - -;
#X floatatom 323 463 5 0 0 0 - - -;
#X floatatom 217 556 5 0 0 0 - - -;
#X msg 529 240 loop \$1;
#X obj 529 220 tgl 15 0 empty empty empty 17 7 0 10 -262144 -1 -1 0
1;
#X floatatom 376 432 5 0 0 0 - - -;
#X obj 482 367 bng 15 250 50 0 empty empty empty 17 7 0 10 -262144
-1 -1;
#X obj 217 336 route ready samplerate length cache float bang;
#X floatatom 429 390 5 0 0 0 - - -;
#X text 262 555 ready: status for when a file is loaded and ready;
#X text 319 568 to play. If you load a file from disk or;
#X text 319 582 from the net \, it may take a while to load;
#X text 318 595 depending on disk activity and net bandwidth.;
#X text 329 503 samplerate of the file being played. The;
#X text 371 465 length: length of file in seconds;
#X text 372 478 (will be empty for network streams);
#X text 424 432 cache: percentage (0.0->1.0) of;
#X text 474 445 cache being used.;
#X text 475 391 float: length in seconds;
#X text 525 404 that have been;
#X text 527 414 played so far.;
#X text 508 367 bang: end of file.;
#X msg 516 111 0.8;
#X obj 29 258 readanysf~ 4 32 256;
#X obj 579 203 s v;
#X obj 38 283 r v;
#X obj 108 321 *~ 0;
#X obj 149 321 *~ 0;
#X text 599 154 Volume;
#X text 217 258 <- readanysf~ has 3 possible creation args 1) number
of channels (all channels will be up or down mixed accordingly) default
is 2 channels. 2) number of "frames" in the internal buffer. Default=24
3) number of samples per frame in internal buffer. Default is your
blocksize.;
#X msg 108 29 open http://wnycam.streamguys.com;
#X floatatom 422 164 16 0 0 0 - - -;
#X obj 425 141 hsl 128 15 0 500 0 0 empty empty empty -2 -8 0 10 -260818
-1 -1 700 1;
#X msg 422 184 time_seek \$1;
#X connect 1 0 0 0;
#X connect 2 0 0 1;
#X connect 3 0 11 0;
#X connect 3 0 45 0;
#X connect 4 0 44 0;
#X connect 5 0 44 0;
#X connect 6 0 44 0;
#X connect 7 0 6 0;
#X connect 8 0 10 0;
#X connect 8 0 43 0;
#X connect 9 0 7 0;
#X connect 12 0 44 0;
#X connect 13 0 12 0;
#X connect 14 0 13 0;
#X connect 15 0 44 0;
#X connect 16 0 17 0;
#X connect 17 0 44 0;
#X connect 18 0 16 0;
#X connect 19 0 7 0;
#X connect 20 0 44 0;
#X connect 24 0 44 0;
#X connect 25 0 24 0;
#X connect 28 0 23 0;
#X connect 28 1 21 0;
#X connect 28 2 22 0;
#X connect 28 3 26 0;
#X connect 28 4 29 0;
#X connect 28 5 27 0;
#X connect 43 0 3 0;
#X connect 44 0 1 0;
#X connect 44 1 2 0;
#X connect 44 2 47 0;
#X connect 44 3 48 0;
#X connect 44 4 28 0;
#X connect 46 0 1 1;
#X connect 46 0 2 1;
#X connect 46 0 47 1;
#X connect 46 0 48 1;
#X connect 51 0 44 0;
#X connect 52 0 54 0;
#X connect 53 0 52 0;
#X connect 54 0 44 0;
